PathFileType	4	(X/Y/Z)	./motion_analysis/DM_ngait_tm_slow1_new.trc
DataRate	CameraRate	NumFrames	NumMarkers	Units	OrigDataRate	OrigDataStartFrame	OrigNumFrames
120	120	8	68	mm	120	1386	1585
Frame#	Time	Sternum			Neck			R_Shoulder			L_Shoulder			Xiphoid			Thoracic			R_Asis			L_Asis			R_Psis			L_Psis			Lumbar			R_Elbow			R_ElbowMedial			R_ShoulderAnterior			R_ShoulderPosterior			R_Wrist			R_Radius			R_Ulna			L_Elbow			L_ElbowMedial			L_ShoulderAnterior			L_ShoulderPosterior			L_Wrist			L_Ulna			L_Radius			L_Thigh_Superior			L_Thigh_Inferior			L_Thigh_Lateral			L_Knee_Lateral			L_Knee_Medial			L_Patella			L_Shank_Superior			L_Shank_Inferior			L_Shank_Lateral			L_Ankle_Lateral			L_Ankle_Medial			R_Thigh_Superior			R_Thigh_Inferior			R_Thigh_Lateral			R_Knee_Lateral			R_Knee_Medial			R_Patella			R_Shank_Superior			R_Shank_Inferior			R_Shank_Lateral			R_Ankle_Lateral			RankleMedial			R_Heel			R_Toe			R_Midfoot_Medial			R_Midfoot_Lateral			R_Hindfoot			R_Midfoot_Superior			R_ToeMedial			R_ToeLateral			L_Heel			L_Toe			L_Midfoot_Medial			L_Midfoot_Lateral			L_Hindfoot			L_Midfoot_Superior			L_ToeMedial			L_ToeLateral			Oglobal			Sacral			Xglobal			Yglobal			Zglobal			
		X1	Y1	Z1	X2	Y2	Z2	X3	Y3	Z3	X4	Y4	Z4	X5	Y5	Z5	X6	Y6	Z6	X7	Y7	Z7	X8	Y8	Z8	X9	Y9	Z9	X10	Y10	Z10	X11	Y11	Z11	X12	Y12	Z12	X13	Y13	Z13	X14	Y14	Z14	X15	Y15	Z15	X16	Y16	Z16	X17	Y17	Z17	X18	Y18	Z18	X19	Y19	Z19	X20	Y20	Z20	X21	Y21	Z21	X22	Y22	Z22	X23	Y23	Z23	X24	Y24	Z24	X25	Y25	Z25	X26	Y26	Z26	X27	Y27	Z27	X28	Y28	Z28	X29	Y29	Z29	X30	Y30	Z30	X31	Y31	Z31	X32	Y32	Z32	X33	Y33	Z33	X34	Y34	Z34	X35	Y35	Z35	X36	Y36	Z36	X37	Y37	Z37	X38	Y38	Z38	X39	Y39	Z39	X40	Y40	Z40	X41	Y41	Z41	X42	Y42	Z42	X43	Y43	Z43	X44	Y44	Z44	X45	Y45	Z45	X46	Y46	Z46	X47	Y47	Z47	X48	Y48	Z48	X49	Y49	Z49	X50	Y50	Z50	X51	Y51	Z51	X52	Y52	Z52	X53	Y53	Z53	X54	Y54	Z54	X55	Y55	Z55	X56	Y56	Z56	X57	Y57	Z57	X58	Y58	Z58	X59	Y59	Z59	X60	Y60	Z60	X61	Y61	Z61	X62	Y62	Z62	X63	Y63	Z63	X64	Y64	Z64	X65	Y65	Z65	X66	Y66	Z66	X67	Y67	Z67	X68	Y68	Z68	

1387	11.558333	-781.925	1378.22	456.061	-636.505	1475.86	440.609	-724.2619999999999	1400.69	279.917	-683.703	1436.26	623.452	-791.33	1211.06	462.297	-534.532	1288.59	454.723	-710.6180000000001	986.581	330.883	-709.043	989.12	609.85	-510.481	1042.75	441.161	-512.944	1043.78	517.4589999999999	-516.4400000000001	1092.88	474.179	-672.259	1088.87	186.022	-0	0	0	-0	0	0	-0	0	0	-798.399	845.829	237.665	-786.9	860.03	281.671	-754.294	844.11	215.799	-608.675	1107.83	727.027	-0	0	0	-0	0	0	-0	0	0	-664.11	844.8	727.729	-618.258	854.437	738.843	-666.907	859.701	682.971	-664.119	824.783	646.827	-743.398	615.963	593.897	-768.72	711.619	576.181	-0	0	0	-0	0	0	-796.062	545.138	523.598	-741.504	467.062	599.73	-761.191	195.985	603.765	-783.1849999999999	326.511	529.252	-0	0	0	-0	0	0	-594.01	814.765	302.779	-567.401	600.861	344.256	-661.644	646.546	388.573	-0	0	0	-0	0	0	-624.098	498.195	414.998	-0	0	0	-422.944	217.96	349.091	-519.413	321.241	416.793	-0	0	0	-0	0	0	-308.442	92.7803	401.586	-605.271	62.0388	393.31	-528.272	44.2987	447.852	-514.034	40.5532	331.509	-403.359	47.4801	346.114	-474.51	135.266	392.835	-572.22	51.9686	438.933	-562.783	52.6922	345.597	-707.826	71.875	553.577	-1003	99.8909	552.547	-928.115	69.0313	502.272	-917.784	66.27370000000001	616.254	-809.884	47.2923	609.28	-861.965	146.156	557.456	-967.551	76.8039	509.034	-969.024	76.8772	605.756	-0	0	0	-511.713	1043.27	479.31	-200	0	0	-0	0	200	-0	200	0	
1388	11.566667	-782.65	1377.87	457.626	-636.97	1475.19	443.161	-723.909	1400.41	281.831	-685.21	1435.2	625.721	-792.4450000000001	1210.62	463.227	-535.4349999999999	1287.62	457.419	-711.64	986.122	331.329	-711.443	988.217	610.532	-511.949	1041.72	442.713	-514.623	1042.53	519.472	-517.928	1091.74	475.87	-671.726	1088.59	187.763	-0	0	0	-0	0	0	-0	0	0	-797.663	845.639	238.889	-787.171	858.795	283.704	-753.438	843.5309999999999	217.59	-611.004	1106.48	729.085	-0	0	0	-0	0	0	-0	0	0	-666.513	843.404	729.0309999999999	-620.702	853.114	740.414	-669.1130000000001	858.432	684.198	-669.905	823.901	646.447	-745.215	615.037	590.992	-772.558	710.346	574.515	-0	0	0	-0	0	0	-797.293	543.61	521.774	-743.6180000000001	466.304	599.46	-761.087	194.945	604.207	-783.019	324.934	528.5599999999999	-0	0	0	-0	0	0	-594.329	814.4160000000001	303.288	-566.751	600.462	344.225	-661.49	645.756	388.693	-0	0	0	-0	0	0	-623.706	496.951	414.081	-0	0	0	-419.638	218.684	349.067	-517.312	320.996	416.544	-0	0	0	-0	0	0	-304.509	93.9131	401.532	-601.0170000000001	62.0151	393.284	-524.088	44.3913	447.885	-509.789	40.3373	331.56	-399.087	47.8933	346.181	-470.779	135.461	392.585	-567.931	52.001	439.045	-558.539	52.552	345.708	-705.388	72.70820000000001	553.78	-1001.16	94.32510000000001	552.095	-925.46	65.2026	502.012	-915.303	62.458	616.009	-807.014	45.7552	609.279	-861.053	143.613	557.47	-965.062	72.16630000000001	508.698	-966.7190000000001	71.9811	605.449	-0	0	0	-513.2859999999999	1042.13	481.093	-200	0	0	-0	0	200	-0	200	0	
1389	11.575	-783.403	1377.47	459.136	-637.405	1474.64	445.781	-723.564	1400.25	283.721	-686.729	1434.08	627.926	-793.621	1210.25	464.375	-536.282	1286.74	460.067	-711.874	984.705	330.947	-713.397	986.572	609.647	-512.922	1040.86	443.385	-515.678	1041.49	520.917	-519.322	1090.7	476.51	-671.1319999999999	1088.43	189.514	-0	0	0	-0	0	0	-0	0	0	-796.919	845.45	240.072	-786.939	858.216	284.775	-752.506	842.833	219.384	-613.407	1105.14	731.105	-0	0	0	-0	0	0	-0	0	0	-669.0599999999999	842.063	730.407	-623.326	851.766	742.078	-670.942	856.9640000000001	685.292	-674.726	823.499	645.604	-747.105	614.1420000000001	588.617	-775.526	708.922	572.734	-0	0	0	-0	0	0	-799.2380000000001	542.55	520.482	-746.325	465.644	599.333	-760.992	193.992	604.521	-783.456	323.633	528.116	-0	0	0	-0	0	0	-594.771	814.073	303.766	-566.388	600.09	344.642	-661.597	645.016	388.417	-0	0	0	-0	0	0	-623.448	496.033	413.18	-0	0	0	-416.446	219.542	348.972	-515.3869999999999	320.789	416.34	-0	0	0	-0	0	0	-300.678	95.19670000000001	401.457	-596.794	61.8773	393.298	-519.981	44.4895	447.84	-505.579	40.1211	331.538	-394.924	48.3988	346.202	-467.207	135.696	392.258	-563.532	51.7721	438.955	-554.198	52.6464	345.717	-703.025	73.5162	553.966	-999.208	89.37430000000001	552.149	-922.895	61.8679	502.108	-912.7329999999999	59.283	616.109	-804.136	44.7932	609.296	-860.071	141.495	557.616	-962.694	68.011	508.636	-964.3200000000001	67.6801	605.407	-0	0	0	-514.3	1041.17	482.151	-200	0	0	-0	0	200	-0	200	0	
1390	11.583333	-784.1660000000001	1377.21	460.801	-637.956	1474.18	448.521	-723.301	1400.15	285.664	-688.27	1433.03	630.139	-794.741	1209.92	465.502	-537.22	1286.03	462.545	-712.548	984.028	331.165	-715.633	985.893	609.787	-514.1319999999999	1040	444.644	-517.037	1040.44	522.794	-520.647	1089.71	477.777	-670.486	1088.33	191.297	-0	0	0	-0	0	0	-0	0	0	-796.088	845.408	241.135	-786.606	857.788	285.642	-751.519	842.331	221.092	-615.99	1103.79	733.073	-0	0	0	-0	0	0	-0	0	0	-671.6900000000001	840.655	731.718	-626.121	850.509	743.742	-673.463	855.783	686.636	-678.588	823.343	644.357	-749.221	613.479	587.006	-777.732	707.412	570.224	-0	0	0	-0	0	0	-801.706	542.032	520.057	-749.376	465.199	599.307	-760.797	193.299	604.85	-784.293	322.628	528.241	-0	0	0	-0	0	0	-595.222	813.615	304.269	-566.201	599.7910000000001	344.923	-661.934	644.27	388.291	-0	0	0	-0	0	0	-623.319	495.039	413.108	-0	0	0	-413.472	220.455	348.917	-513.718	320.593	416.136	-0	0	0	-0	0	0	-297.037	96.73180000000001	401.358	-592.645	61.7544	393.353	-516.006	44.6577	447.803	-501.495	39.9203	331.53	-390.879	49.0435	346.24	-463.82	136.005	391.888	-559.455	51.8017	438.956	-550.075	52.5121	345.848	-700.279	74.1557	554.17	-997.033	85.0544	552.064	-919.946	58.9235	502.383	-909.73	56.8067	616.389	-801.019	44.2313	609.458	-858.633	139.784	557.67	-960.104	64.4562	508.554	-961.713	64.0294	605.362	-0	0	0	-515.5839999999999	1040.22	483.719	-200	0	0	-0	0	200	-0	200	0	
1391	11.591667	-784.982	1376.97	462.374	-638.554	1473.78	451.096	-723.138	1400.18	287.487	-689.854	1432.02	632.2619999999999	-795.87	1209.69	466.632	-538.163	1285.44	465.007	-713.373	983.806	331.722	-717.803	985.552	610.242	-515.3680000000001	1039.35	446.134	-518.405	1039.59	524.773	-521.919	1088.94	479.271	-669.74	1088.34	193.125	-0	0	0	-0	0	0	-0	0	0	-795.253	845.492	242.019	-786.1799999999999	857.609	286.313	-750.503	841.998	222.616	-618.7089999999999	1102.51	735.059	-0	0	0	-0	0	0	-0	0	0	-674.547	839.409	733.112	-629.004	849.28	745.45	-676.105	854.616	688.1799999999999	-682.302	823.4160000000001	643.2380000000001	-752.276	613.125	586.462	-779.346	705.946	567.564	-0	0	0	-0	0	0	-804.638	541.737	519.894	-752.306	464.813	599.501	-760.186	192.666	605.097	-785.133	321.798	528.556	-0	0	0	-0	0	0	-595.749	813.213	304.928	-566.265	599.558	345.167	-662.538	643.684	388.149	-0	0	0	-0	0	0	-623.572	494.335	412.75	-0	0	0	-410.721	221.556	348.888	-512.385	320.503	415.809	-0	0	0	-0	0	0	-293.534	98.6284	401.251	-588.61	61.5413	393.391	-512.0549999999999	44.761	447.757	-497.423	39.7046	331.513	-386.925	49.8313	346.217	-460.668	136.361	391.522	-555.405	51.8293	439.067	-545.965	52.4476	345.689	-697.04	74.6722	554.389	-994.177	81.6118	551.797	-916.476	56.596	502.536	-906.297	54.9493	616.553	-797.6900000000001	43.9538	609.595	-856.449	138.472	557.614	-956.898	61.5922	508.332	-958.663	61.1924	605.228	-0	0	0	-516.8869999999999	1039.47	485.453	-200	0	0	-0	0	200	-0	200	0	
1392	11.6	-785.808	1376.9	464.052	-639.172	1473.51	453.651	-723.14	1400.32	289.331	-691.544	1431.05	634.307	-796.907	1209.56	467.87	-539.0549999999999	1285.04	467.221	-714.245	983.593	332.57	-719.828	985.647	610.79	-516.528	1038.88	447.608	-519.643	1038.92	526.683	-523.104	1088.33	480.667	-668.936	1088.47	195.082	-0	0	0	-0	0	0	-0	0	0	-794.398	845.722	242.788	-785.773	857.552	286.788	-749.4930000000001	841.8150000000001	224.038	-621.428	1101.39	737.066	-0	0	0	-0	0	0	-0	0	0	-677.478	838.192	734.443	-632.074	848.099	747.135	-678.88	853.513	689.578	-685.534	823.604	642.376	-756.35	613.191	586.89	-780.534	704.607	564.847	-0	0	0	-0	0	0	-807.8390000000001	541.529	519.9109999999999	-755.046	464.661	599.761	-759.202	192.415	605.354	-785.784	321.244	528.778	-0	0	0	-0	0	0	-596.313	812.941	305.52	-566.662	599.399	345.671	-663.375	643.256	387.936	-0	0	0	-0	0	0	-624.261	493.402	412.713	-0	0	0	-408.25	222.855	348.898	-511.31	320.486	415.563	-0	0	0	-0	0	0	-290.231	100.848	401.126	-584.6319999999999	61.21	393.329	-508.226	44.8772	447.617	-493.424	39.543	331.407	-383.036	50.9156	346.213	-457.706	136.792	391.094	-551.458	51.6727	439.057	-542.033	52.1047	345.894	-693.349	75.0671	554.549	-990.723	78.7402	551.516	-912.621	54.7282	502.841	-902.391	53.5976	616.859	-793.783	43.8161	609.773	-853.601	137.467	557.601	-953.2569999999999	59.3329	508.276	-955.073	59.1602	605.2430000000001	-0	0	0	-518.086	1038.9	487.146	-200	0	0	-0	0	200	-0	200	0	
1393	11.608333	-786.6900000000001	1376.81	465.63	-639.908	1473.36	456.057	-723.3390000000001	1400.64	291.033	-693.424	1430.16	636.319	-798.004	1209.55	469.077	-539.932	1284.86	469.321	-714.971	983.673	333.346	-721.691	985.779	611.324	-517.563	1038.61	449.081	-520.799	1038.45	528.53	-524.171	1087.94	482.109	-668.117	1088.81	196.962	-0	0	0	-0	0	0	-0	0	0	-793.5359999999999	846.097	243.438	-785.355	857.7	287.21	-748.399	841.752	225.365	-624.4160000000001	1100.24	738.872	-0	0	0	-0	0	0	-0	0	0	-680.611	837.14	735.799	-635.268	847.043	748.84	-681.87	852.519	691.066	-688.1369999999999	823.845	641.926	-761.432	613.92	586.708	-781.4880000000001	703.457	562.3150000000001	-0	0	0	-0	0	0	-811.063	541.23	520.011	-757.708	464.643	599.8680000000001	-757.623	192.339	605.297	-786.048	320.894	528.771	-0	0	0	-0	0	0	-596.918	812.878	306.341	-567.47	599.222	346.366	-664.583	643.03	387.851	-0	0	0	-0	0	0	-625.395	492.762	412.59	-0	0	0	-406.028	224.397	348.931	-510.596	320.608	415.294	-0	0	0	-0	0	0	-287.104	103.563	401.037	-580.687	60.7496	393.335	-504.398	44.9649	447.574	-489.448	39.431	331.392	-379.256	52.2567	346.221	-454.995	137.323	390.777	-547.4299999999999	51.4363	439.103	-537.917	51.9762	345.721	-689.279	75.31950000000001	554.779	-986.967	76.3702	551.422	-908.399	53.2461	503.137	-898.165	52.5771	617.159	-789.5940000000001	43.8032	609.941	-850.2329999999999	136.688	557.62	-949.299	57.2683	508.599	-951.169	57.3865	605.325	-0	0	0	-519.181	1038.53	488.805	-200	0	0	-0	0	200	-0	200	0	
1394	11.616667	-787.5170000000001	1376.81	467.236	-640.646	1473.33	458.388	-723.602	1401.07	292.782	-695.124	1429.45	638.1609999999999	-799.034	1209.62	470.38	-540.812	1284.79	471.279	-715.6609999999999	983.942	334.155	-723.4400000000001	986.098	611.91	-518.532	1038.53	450.532	-521.92	1038.14	530.248	-525.16	1087.72	483.542	-667.165	1089.29	198.947	-0	0	0	-0	0	0	-0	0	0	-792.672	846.652	243.986	-784.986	858.056	287.451	-747.331	841.908	226.522	-627.498	1099.35	740.8150000000001	-0	0	0	-0	0	0	-0	0	0	-683.912	836.1799999999999	737.237	-638.628	846.171	750.5170000000001	-684.904	851.662	692.3630000000001	-690.14	824.03	642.1660000000001	-766.4	615.432	585.234	-782.346	702.534	560.125	-0	0	0	-0	0	0	-814.063	540.9109999999999	520.191	-760.399	464.735	599.707	-755.827	192.76	605.352	-785.899	320.69	528.6319999999999	-0	0	0	-0	0	0	-597.5119999999999	812.977	307.14	-568.651	599.167	346.988	-666.016	643.003	387.931	-0	0	0	-0	0	0	-627.072	492.1	412.374	-0	0	0	-404.16	226.202	348.95	-510.261	320.914	415.108	-0	0	0	-0	0	0	-284.185	106.729	400.971	-576.872	60.1631	393.357	-500.64	45.1215	447.533	-485.492	39.349	331.388	-375.52	53.8701	346.281	-452.511	137.966	390.419	-543.5700000000001	51.158	439.081	-534.054	51.6437	345.88	-684.998	75.4877	554.97	-983.057	74.98390000000001	551.421	-903.966	52.3439	503.154	-893.847	51.9757	617.187	-785.284	43.7641	610.035	-846.395	136.227	557.511	-945.234	56.0514	508.352	-947.076	56.2759	605.404	-0	0	0	-520.226	1038.33	490.39	-200	0	0	-0	0	200	-0	200	0	
